<?xml version="1.0" encoding="UTF-8" standalone="no"?>
<svg
   xmlns:dc="http://purl.org/dc/elements/1.1/"
   xmlns:cc="http://creativecommons.org/ns#"
   xmlns:rdf="http://www.w3.org/1999/02/22-rdf-syntax-ns#"
   xmlns:svg="http://www.w3.org/2000/svg"
   xmlns="http://www.w3.org/2000/svg"
   xmlns:sodipodi="http://sodipodi.sourceforge.net/DTD/sodipodi-0.dtd"
   xmlns:inkscape="http://www.inkscape.org/namespaces/inkscape"
   id="Layer_1"
   style="enable-background:new 0 0 50 50;"
   version="1.1"
   viewBox="0 0 50 50"
   xml:space="preserve"
   sodipodi:docname="general.svg"
   inkscape:version="0.92.4 (5da689c313, 2019-01-14)"><metadata
     id="metadata116"><rdf:RDF><cc:Work
         rdf:about=""><dc:format>image/svg+xml</dc:format><dc:type
           rdf:resource="http://purl.org/dc/dcmitype/StillImage" /></cc:Work></rdf:RDF></metadata><defs
     id="defs114" /><sodipodi:namedview
     pagecolor="#ffffff"
     bordercolor="#666666"
     borderopacity="1"
     objecttolerance="10"
     gridtolerance="10"
     guidetolerance="10"
     inkscape:pageopacity="0"
     inkscape:pageshadow="2"
     inkscape:window-width="1920"
     inkscape:window-height="1011"
     id="namedview112"
     showgrid="false"
     inkscape:zoom="13.350176"
     inkscape:cx="30.599763"
     inkscape:cy="26.709323"
     inkscape:window-x="-8"
     inkscape:window-y="-8"
     inkscape:window-maximized="1"
     inkscape:current-layer="Layer_1_1_" /><g
     id="Layer_1_1_"><path
       d="M5,7v42h34v-6h6V1H11v6H5z M37,47H7V9h4h19v7h7v27V47z M32,10.414L35.586,14H32V10.414z M13,3h30v38h-4V14.586L31.414,7H13   V3z"
       id="path96"
       style="fill:#ffffff" /><rect
       height="2"
       width="22"
       x="11"
       y="20"
       id="rect98"
       style="fill:#ffffff" /><rect
       height="2"
       width="22"
       x="11"
       y="26"
       id="rect100"
       style="fill:#ffffff" /><rect
       height="2"
       width="22"
       x="11"
       y="32"
       id="rect102"
       style="fill:#ffffff" /><rect
       height="2"
       width="9"
       x="11"
       y="40"
       id="rect104"
       style="fill:#ffffff" /><rect
       height="2"
       width="9"
       x="24"
       y="40"
       id="rect106"
       style="fill:#ffffff" /><rect
       height="2"
       width="8"
       x="18"
       y="14"
       id="rect108"
       style="fill:#ffffff" /></g></svg>